0
SECTION
2
ENTITIES
0
LINE
8
EDGE
10
0.0000
20
0.0000
30
0.0
11
60.0000
21
0.0000
31
0.0
0
LINE
8
EDGE
10
60.0000
20
0.0000
30
0.0
11
60.0000
21
45.0000
31
0.0
0
LINE
8
EDGE
10
60.0000
20
45.0000
30
0.0
11
0.0000
21
45.0000
31
0.0
0
LINE
8
EDGE
10
0.0000
20
45.0000
30
0.0
11
0.0000
21
0.0000
31
0.0
0
CIRCLE
8
HOLES
10
5.0000
20
5.0000
30
0.0
40
1.6000
0
CIRCLE
8
HOLES
10
55.0000
20
5.0000
30
0.0
40
1.6000
0
CIRCLE
8
HOLES
10
55.0000
20
40.0000
30
0.0
40
1.6000
0
CIRCLE
8
HOLES
10
5.0000
20
40.0000
30
0.0
40
1.6000
0
ENDSEC
0
EOF
