0
SECTION
2
ENTITIES
0
LINE
8
EDGE
10
0.0000
20
0.0000
30
0.0
11
233.0000
21
0.0000
31
0.0
0
LINE
8
EDGE
10
233.0000
20
0.0000
30
0.0
11
233.0000
21
160.0000
31
0.0
0
LINE
8
EDGE
10
233.0000
20
160.0000
30
0.0
11
0.0000
21
160.0000
31
0.0
0
LINE
8
EDGE
10
0.0000
20
160.0000
30
0.0
11
0.0000
21
0.0000
31
0.0
0
CIRCLE
8
HOLES
10
5.0000
20
5.0000
30
0.0
40
1.6000
0
CIRCLE
8
HOLES
10
228.0000
20
5.0000
30
0.0
40
1.6000
0
CIRCLE
8
HOLES
10
228.0000
20
155.0000
30
0.0
40
1.6000
0
CIRCLE
8
HOLES
10
5.0000
20
155.0000
30
0.0
40
1.6000
0
ENDSEC
0
EOF
